<svg width="1440" height="705" viewBox="0 0 1440 705" fill="none" xmlns="http://www.w3.org/2000/svg"><mask id="mask0_21_254" style="mask-type:alpha" maskUnits="userSpaceOnUse" x="-128" y="-90" width="1572" height="796"><path d="M-128 705L1444 705L1444 -89.9998L-128 -89.9999L-128 705Z" fill="#D9D9D9"/></mask><g mask="url(#mask0_21_254)"><path fill-rule="evenodd" clip-rule="evenodd" d="M581.426 759.912L581.426 704.045L635.047 704.045L635.047 703.045L581.426 703.045L581.426 630.391L635.047 630.391L635.047 629.391L581.426 629.391L581.426 556.736L635.047 556.736L635.047 555.736L581.426 555.736L581.426 483.082L635.047 483.082L635.047 482.082L581.426 482.082L581.426 409.428L635.047 409.428L635.047 408.428L581.426 408.428L581.426 335.773L635.047 335.773L635.047 334.773L581.426 334.773L581.426 262.119L635.047 262.119L635.047 261.119L581.426 261.119L581.426 188.465L635.047 188.465L635.047 187.465L581.426 187.465L581.426 131.596L580.426 131.596L580.426 187.465L507.77 187.465L507.77 131.596L506.77 131.596L506.77 187.465L434.12 187.465L434.12 131.596L433.12 131.596L433.12 187.465L360.47 187.465L360.47 131.596L359.47 131.596L359.47 187.465L286.81 187.465L286.81 131.596L285.81 131.596L285.81 187.465L213.15 187.465L213.15 131.596L212.15 131.596L212.15 187.465L139.5 187.465L139.5 131.596L138.5 131.596L138.5 187.465L65.85 187.465L65.85 131.596L64.85 131.596L64.85 187.465L6.73002 187.465L6.73002 188.465L64.85 188.465L64.85 261.119L6.73001 261.119L6.73001 262.119L64.85 262.119L64.85 334.773L6.73 334.773L6.73 335.773L64.85 335.773L64.85 408.428L6.73 408.428L6.73 409.428L64.85 409.428L64.85 482.082L6.72999 482.082L6.72999 483.082L64.85 483.082L64.85 555.736L6.72998 555.736L6.72998 556.736L64.85 556.736L64.85 629.391L6.72998 629.391L6.72998 630.391L64.85 630.391L64.85 703.045L6.72997 703.045L6.72997 704.045L64.85 704.045L64.85 759.912L65.85 759.912L65.85 704.045L138.5 704.045L138.5 759.912L139.5 759.912L139.5 704.045L212.15 704.045L212.15 759.912L213.15 759.912L213.15 704.045L285.81 704.045L285.81 759.912L286.81 759.912L286.81 704.045L359.47 704.045L359.47 759.912L360.47 759.912L360.47 704.045L433.12 704.045L433.12 759.912L434.12 759.912L434.12 704.045L506.77 704.045L506.77 759.912L507.77 759.912L507.77 704.045L580.426 704.045L580.426 759.912L581.426 759.912ZM65.85 188.465L65.85 261.119L138.5 261.119L138.5 188.465L65.85 188.465ZM139.5 188.465L139.5 261.119L212.15 261.119L212.15 188.465L139.5 188.465ZM213.15 188.465L213.15 261.119L285.81 261.119L285.81 188.465L213.15 188.465ZM286.81 188.465L286.81 261.119L359.47 261.119L359.47 188.465L286.81 188.465ZM360.47 188.465L360.47 261.119L433.12 261.119L433.12 188.465L360.47 188.465ZM434.12 188.465L434.12 261.119L506.77 261.119L506.77 188.465L434.12 188.465ZM507.77 188.465L507.77 261.119L580.426 261.119L580.426 188.465L507.77 188.465ZM507.77 262.119L580.426 262.119L580.426 334.773L507.77 334.773L507.77 262.119ZM434.12 262.119L506.77 262.119L506.77 334.773L434.12 334.773L434.12 262.119ZM360.47 262.119L433.12 262.119L433.12 334.773L360.47 334.773L360.47 262.119ZM286.81 262.119L359.47 262.119L359.47 334.773L286.81 334.773L286.81 262.119ZM213.15 262.119L285.81 262.119L285.81 334.773L213.15 334.773L213.15 262.119ZM139.5 262.119L212.15 262.119L212.15 334.773L139.5 334.773L139.5 262.119ZM65.85 262.119L138.5 262.119L138.5 334.773L65.85 334.773L65.85 262.119ZM65.85 335.773L65.85 408.428L138.5 408.428L138.5 335.773L65.85 335.773ZM139.5 335.773L139.5 408.428L212.15 408.428L212.15 335.773L139.5 335.773ZM213.15 335.773L213.15 408.428L285.81 408.428L285.81 335.773L213.15 335.773ZM286.81 335.773L286.81 408.428L359.47 408.428L359.47 335.773L286.81 335.773ZM360.47 335.773L360.47 408.428L433.12 408.428L433.12 335.773L360.47 335.773ZM434.12 335.773L434.12 408.428L506.77 408.428L506.77 335.773L434.12 335.773ZM507.77 335.773L507.77 408.428L580.426 408.428L580.426 335.773L507.77 335.773ZM507.77 409.428L580.426 409.428L580.426 482.082L507.77 482.082L507.77 409.428ZM434.12 409.428L506.77 409.428L506.77 482.082L434.12 482.082L434.12 409.428ZM360.47 409.428L433.12 409.428L433.12 482.082L360.47 482.082L360.47 409.428ZM286.81 409.428L359.47 409.428L359.47 482.082L286.81 482.082L286.81 409.428ZM213.15 409.428L285.81 409.428L285.81 482.082L213.15 482.082L213.15 409.428ZM139.5 409.428L212.15 409.428L212.15 482.082L139.5 482.082L139.5 409.428ZM65.85 409.428L138.5 409.428L138.5 482.082L65.85 482.082L65.85 409.428ZM65.85 483.082L65.85 555.736L138.5 555.736L138.5 483.082L65.85 483.082ZM139.5 483.082L139.5 555.736L212.15 555.736L212.15 483.082L139.5 483.082ZM213.15 483.082L213.15 555.736L285.81 555.736L285.81 483.082L213.15 483.082ZM286.81 483.082L286.81 555.736L359.47 555.736L359.47 483.082L286.81 483.082ZM360.47 483.082L360.47 555.736L433.12 555.736L433.12 483.082L360.47 483.082ZM434.12 483.082L434.12 555.736L506.77 555.736L506.77 483.082L434.12 483.082ZM507.77 483.082L507.77 555.736L580.426 555.736L580.426 483.082L507.77 483.082ZM507.77 556.736L580.426 556.736L580.426 629.391L507.77 629.391L507.77 556.736ZM434.12 556.736L506.77 556.736L506.77 629.391L434.12 629.391L434.12 556.736ZM360.47 556.736L433.12 556.736L433.12 629.391L360.47 629.391L360.47 556.736ZM286.81 556.736L359.47 556.736L359.47 629.391L286.81 629.391L286.81 556.736ZM213.15 556.736L285.81 556.736L285.81 629.391L213.15 629.391L213.15 556.736ZM139.5 556.736L212.15 556.736L212.15 629.391L139.5 629.391L139.5 556.736ZM65.85 556.736L138.5 556.736L138.5 629.391L65.85 629.391L65.85 556.736ZM65.85 630.391L65.85 703.045L138.5 703.045L138.5 630.391L65.85 630.391ZM139.5 630.391L139.5 703.045L212.15 703.045L212.15 630.391L139.5 630.391ZM213.15 630.391L213.15 703.045L285.81 703.045L285.81 630.391L213.15 630.391ZM286.81 630.391L286.81 703.045L359.47 703.045L359.47 630.391L286.81 630.391ZM360.47 630.391L360.47 703.045L433.12 703.045L433.12 630.391L360.47 630.391ZM434.12 630.391L434.12 703.045L506.77 703.045L506.77 630.391L434.12 630.391ZM507.77 630.391L507.77 703.045L580.426 703.045L580.426 630.391L507.77 630.391Z" fill="url(#paint0_radial_21_254)"/><path fill-rule="evenodd" clip-rule="evenodd" d="M951.426 453.912L951.426 398.045L1005.05 398.045L1005.05 397.045L951.426 397.045L951.426 324.391L1005.05 324.391L1005.05 323.391L951.426 323.391L951.426 250.736L1005.05 250.736L1005.05 249.736L951.426 249.736L951.426 177.082L1005.05 177.082L1005.05 176.082L951.426 176.082L951.426 103.428L1005.05 103.428L1005.05 102.428L951.426 102.428L951.426 29.7734L1005.05 29.7734L1005.05 28.7734L951.426 28.7734L951.426 -43.8806L1005.05 -43.8806L1005.05 -44.8806L951.426 -44.8806L951.426 -117.535L1005.05 -117.535L1005.05 -118.535L951.426 -118.535L951.426 -174.404L950.426 -174.404L950.426 -118.535L877.77 -118.535L877.77 -174.404L876.77 -174.404L876.77 -118.535L804.122 -118.535L804.122 -174.404L803.122 -174.404L803.122 -118.535L730.465 -118.535L730.465 -174.404L729.465 -174.404L729.465 -118.535L656.809 -118.535L656.809 -174.404L655.809 -174.404L655.809 -118.535L583.153 -118.535L583.153 -174.404L582.153 -174.404L582.153 -118.535L509.504 -118.535L509.504 -174.404L508.504 -174.404L508.504 -118.535L435.85 -118.535L435.85 -174.404L434.85 -174.404L434.85 -118.535L376.73 -118.535L376.73 -117.535L434.85 -117.535L434.85 -44.8807L376.73 -44.8807L376.73 -43.8807L434.85 -43.8807L434.85 28.7733L376.73 28.7733L376.73 29.7733L434.85 29.7733L434.85 102.428L376.73 102.428L376.73 103.428L434.85 103.428L434.85 176.082L376.73 176.082L376.73 177.082L434.85 177.082L434.85 249.736L376.73 249.736L376.73 250.736L434.85 250.736L434.85 323.391L376.73 323.391L376.73 324.391L434.85 324.391L434.85 397.045L376.73 397.045L376.73 398.045L434.85 398.045L434.85 453.912L435.85 453.912L435.85 398.045L508.504 398.045L508.504 453.912L509.504 453.912L509.504 398.045L582.153 398.045L582.153 453.912L583.153 453.912L583.153 398.045L655.809 398.045L655.809 453.912L656.809 453.912L656.809 398.045L729.465 398.045L729.465 453.912L730.465 453.912L730.465 398.045L803.122 398.045L803.122 453.912L804.122 453.912L804.122 398.045L876.77 398.045L876.77 453.912L877.77 453.912L877.77 398.045L950.426 398.045L950.426 453.912L951.426 453.912ZM435.85 -117.535L435.85 -44.8807L508.504 -44.8807L508.504 -117.535L435.85 -117.535ZM509.504 -117.535L509.504 -44.8807L582.153 -44.8807L582.153 -117.535L509.504 -117.535ZM583.153 -117.535L583.153 -44.8807L655.809 -44.8806L655.809 -117.535L583.153 -117.535ZM656.809 -117.535L656.809 -44.8806L729.465 -44.8806L729.465 -117.535L656.809 -117.535ZM730.465 -117.535L730.465 -44.8806L803.122 -44.8806L803.122 -117.535L730.465 -117.535ZM804.122 -117.535L804.122 -44.8806L876.77 -44.8806L876.77 -117.535L804.122 -117.535ZM877.77 -117.535L877.77 -44.8806L950.426 -44.8806L950.426 -117.535L877.77 -117.535ZM877.77 -43.8806L950.426 -43.8806L950.426 28.7734L877.77 28.7734L877.77 -43.8806ZM804.122 -43.8806L876.77 -43.8806L876.77 28.7734L804.122 28.7734L804.122 -43.8806ZM730.465 -43.8806L803.122 -43.8806L803.122 28.7734L730.465 28.7734L730.465 -43.8806ZM656.809 -43.8806L729.465 -43.8806L729.465 28.7734L656.809 28.7733L656.809 -43.8806ZM583.153 -43.8807L655.809 -43.8806L655.809 28.7733L583.153 28.7733L583.153 -43.8807ZM509.504 -43.8807L582.153 -43.8807L582.153 28.7733L509.504 28.7733L509.504 -43.8807ZM435.85 -43.8807L508.504 -43.8807L508.504 28.7733L435.85 28.7733L435.85 -43.8807ZM435.85 29.7733L435.85 102.428L508.504 102.428L508.504 29.7733L435.85 29.7733ZM509.504 29.7733L509.504 102.428L582.153 102.428L582.153 29.7733L509.504 29.7733ZM583.153 29.7733L583.153 102.428L655.809 102.428L655.809 29.7733L583.153 29.7733ZM656.809 29.7733L656.809 102.428L729.465 102.428L729.465 29.7734L656.809 29.7733ZM730.465 29.7734L730.465 102.428L803.122 102.428L803.122 29.7734L730.465 29.7734ZM804.122 29.7734L804.122 102.428L876.77 102.428L876.77 29.7734L804.122 29.7734ZM877.77 29.7734L877.77 102.428L950.426 102.428L950.426 29.7734L877.77 29.7734ZM877.77 103.428L950.426 103.428L950.426 176.082L877.77 176.082L877.77 103.428ZM804.122 103.428L876.77 103.428L876.77 176.082L804.122 176.082L804.122 103.428ZM730.465 103.428L803.122 103.428L803.122 176.082L730.465 176.082L730.465 103.428ZM656.809 103.428L729.465 103.428L729.465 176.082L656.809 176.082L656.809 103.428ZM583.153 103.428L655.809 103.428L655.809 176.082L583.153 176.082L583.153 103.428ZM509.504 103.428L582.153 103.428L582.153 176.082L509.504 176.082L509.504 103.428ZM435.85 103.428L508.504 103.428L508.504 176.082L435.85 176.082L435.85 103.428ZM435.85 177.082L435.85 249.736L508.504 249.736L508.504 177.082L435.85 177.082ZM509.504 177.082L509.504 249.736L582.153 249.736L582.153 177.082L509.504 177.082ZM583.153 177.082L583.153 249.736L655.809 249.736L655.809 177.082L583.153 177.082ZM656.809 177.082L656.809 249.736L729.465 249.736L729.465 177.082L656.809 177.082ZM730.465 177.082L730.465 249.736L803.122 249.736L803.122 177.082L730.465 177.082ZM804.122 177.082L804.122 249.736L876.77 249.736L876.77 177.082L804.122 177.082ZM877.77 177.082L877.77 249.736L950.426 249.736L950.426 177.082L877.77 177.082ZM877.77 250.736L950.426 250.736L950.426 323.391L877.77 323.391L877.77 250.736ZM804.122 250.736L876.77 250.736L876.77 323.391L804.122 323.391L804.122 250.736ZM730.465 250.736L803.122 250.736L803.122 323.391L730.465 323.391L730.465 250.736ZM656.809 250.736L729.465 250.736L729.465 323.391L656.809 323.391L656.809 250.736ZM583.153 250.736L655.809 250.736L655.809 323.391L583.153 323.391L583.153 250.736ZM509.504 250.736L582.153 250.736L582.153 323.391L509.504 323.391L509.504 250.736ZM435.85 250.736L508.504 250.736L508.504 323.391L435.85 323.391L435.85 250.736ZM435.85 324.391L435.85 397.045L508.504 397.045L508.504 324.391L435.85 324.391ZM509.504 324.391L509.504 397.045L582.153 397.045L582.153 324.391L509.504 324.391ZM583.153 324.391L583.153 397.045L655.809 397.045L655.809 324.391L583.153 324.391ZM656.809 324.391L656.809 397.045L729.465 397.045L729.465 324.391L656.809 324.391ZM730.465 324.391L730.465 397.045L803.122 397.045L803.122 324.391L730.465 324.391ZM804.122 324.391L804.122 397.045L876.77 397.045L876.77 324.391L804.122 324.391ZM877.77 324.391L877.77 397.045L950.426 397.045L950.426 324.391L877.77 324.391Z" fill="url(#paint1_radial_21_254)"/><g opacity="0.4" filter="url(#filter0_f_21_254)"><path d="M245.138 856.734C386.788 915.975 546.922 855.674 602.809 722.046C658.695 588.419 589.171 432.068 447.522 372.826C305.872 313.585 145.738 373.886 89.8514 507.514C33.9648 641.141 103.489 797.492 245.138 856.734Z" fill="url(#paint2_linear_21_254)" fill-opacity="0.23"/></g><g opacity="0.4" filter="url(#filter1_f_21_254)"><path d="M951.525 728.949C813.188 583.909 632.409 531.793 547.742 612.546C463.076 693.299 506.583 876.341 644.919 1021.38C783.256 1166.42 964.035 1218.54 1048.7 1137.78C1133.37 1057.03 1089.86 873.99 951.525 728.949Z" fill="#D6192B" fill-opacity="0.4"/></g></g><defs><filter id="filter0_f_21_254" x="-123.463" y="156.049" width="939.586" height="917.463" filterUnits="userSpaceOnUse" color-interpolation-filters="sRGB"><feFlood flood-opacity="0" result="BackgroundImageFix"/><feBlend mode="normal" in="SourceGraphic" in2="BackgroundImageFix" result="shape"/><feGaussianBlur stdDeviation="97" result="effect1_foregroundBlur_21_254"/></filter><filter id="filter1_f_21_254" x="200.511" y="270.531" width="1195.42" height="1209.27" filterUnits="userSpaceOnUse" color-interpolation-filters="sRGB"><feFlood flood-opacity="0" result="BackgroundImageFix"/><feBlend mode="normal" in="SourceGraphic" in2="BackgroundImageFix" result="shape"/><feGaussianBlur stdDeviation="152" result="effect1_foregroundBlur_21_254"/></filter><radialGradient id="paint0_radial_21_254" cx="0" cy="0" r="1" gradientUnits="userSpaceOnUse" gradientTransform="translate(320.89 445.754) rotate(-90) scale(238.243 238.243)"><stop stop-color="#0198B1" stop-opacity="0.29"/><stop offset="1" stop-color="#0198B1" stop-opacity="0"/></radialGradient><radialGradient id="paint1_radial_21_254" cx="0" cy="0" r="1" gradientUnits="userSpaceOnUse" gradientTransform="translate(690.889 139.754) rotate(-90) scale(238.243 238.243)"><stop stop-color="#4A6976" stop-opacity="0.29"/><stop offset="1" stop-color="#4A6976" stop-opacity="0"/></radialGradient><linearGradient id="paint2_linear_21_254" x1="673.628" y1="502.677" x2="364.769" y2="941.025" gradientUnits="userSpaceOnUse"><stop stop-color="#0198B1"/><stop offset="0.21875" stop-color="#57C7D3" stop-opacity="0.545098"/><stop offset="1" stop-color="#D6192B" stop-opacity="0"/></linearGradient></defs></svg>
