<svg width="1440" height="795" viewBox="0 0 1440 795" fill="none" xmlns="http://www.w3.org/2000/svg"><g clip-path="url(#clip0_17_67)"><mask id="mask0_17_67" style="mask-type:alpha" maskUnits="userSpaceOnUse" x="-72" y="0" width="1572" height="795"><path d="M1500 0H-72V795H1500V0Z" fill="#D9D9D9"/></mask><g mask="url(#mask0_17_67)"><path fill-rule="evenodd" clip-rule="evenodd" d="M790.574 -54.9121V0.955059L736.953 0.955055V1.95505L790.574 1.95506V74.6094H736.953V75.6094H790.574V148.264H736.953V149.264H790.574V221.918H736.953V222.918H790.574V295.572H736.953V296.572H790.574V369.227H736.953V370.227H790.574V442.881H736.953V443.881H790.574V516.535H736.953V517.535H790.574V573.404H791.574V517.535H864.23V573.404H865.23V517.535H937.88V573.404H938.88V517.535H1011.53V573.404H1012.53V517.535H1085.19V573.404H1086.19V517.535H1158.85V573.404H1159.85V517.535H1232.5V573.404H1233.5V517.535H1306.15V573.404H1307.15V517.535H1365.27V516.535H1307.15V443.881H1365.27V442.881H1307.15V370.227H1365.27V369.227H1307.15V296.572H1365.27V295.572H1307.15V222.918H1365.27V221.918H1307.15V149.264H1365.27V148.264H1307.15V75.6094H1365.27V74.6094H1307.15V1.95508H1365.27V0.955082L1307.15 0.955078V-54.9121H1306.15V0.955078H1233.5V-54.9121H1232.5V0.955078L1159.85 0.955074V-54.9121H1158.85V0.955074L1086.19 0.95507V-54.9121H1085.19V0.95507L1012.53 0.955067V-54.9121H1011.53V0.955067L938.88 0.955063V-54.9121H937.88V0.955063L865.23 0.955059V-54.9121H864.23V0.955059H791.574V-54.9121H790.574ZM1306.15 516.535V443.881H1233.5V516.535H1306.15ZM1232.5 516.535V443.881H1159.85V516.535H1232.5ZM1158.85 516.535V443.881H1086.19V516.535H1158.85ZM1085.19 516.535V443.881H1012.53V516.535H1085.19ZM1011.53 516.535V443.881H938.88V516.535H1011.53ZM937.88 516.535V443.881H865.23V516.535H937.88ZM864.23 516.535V443.881H791.574V516.535H864.23ZM864.23 442.881H791.574V370.227H864.23V442.881ZM937.88 442.881H865.23V370.227H937.88V442.881ZM1011.53 442.881H938.88V370.227H1011.53V442.881ZM1085.19 442.881H1012.53V370.227H1085.19V442.881ZM1158.85 442.881H1086.19V370.227H1158.85V442.881ZM1232.5 442.881H1159.85V370.227H1232.5V442.881ZM1306.15 442.881H1233.5V370.227H1306.15V442.881ZM1306.15 369.227V296.572H1233.5V369.227H1306.15ZM1232.5 369.227V296.572H1159.85V369.227H1232.5ZM1158.85 369.227V296.572H1086.19V369.227H1158.85ZM1085.19 369.227V296.572H1012.53V369.227H1085.19ZM1011.53 369.227V296.572H938.88V369.227H1011.53ZM937.88 369.227V296.572H865.23V369.227H937.88ZM864.23 369.227V296.572H791.574V369.227H864.23ZM864.23 295.572H791.574V222.918H864.23V295.572ZM937.88 295.572H865.23V222.918H937.88V295.572ZM1011.53 295.572H938.88V222.918H1011.53V295.572ZM1085.19 295.572H1012.53V222.918H1085.19V295.572ZM1158.85 295.572H1086.19V222.918H1158.85V295.572ZM1232.5 295.572H1159.85V222.918H1232.5V295.572ZM1306.15 295.572H1233.5V222.918H1306.15V295.572ZM1306.15 221.918V149.264H1233.5V221.918H1306.15ZM1232.5 221.918V149.264H1159.85V221.918H1232.5ZM1158.85 221.918V149.264H1086.19V221.918H1158.85ZM1085.19 221.918V149.264H1012.53V221.918H1085.19ZM1011.53 221.918V149.264H938.88V221.918H1011.53ZM937.88 221.918V149.264H865.23V221.918H937.88ZM864.23 221.918V149.264H791.574V221.918H864.23ZM864.23 148.264H791.574V75.6094H864.23V148.264ZM937.88 148.264H865.23V75.6094H937.88V148.264ZM1011.53 148.264H938.88V75.6094H1011.53V148.264ZM1085.19 148.264H1012.53V75.6094H1085.19V148.264ZM1158.85 148.264H1086.19V75.6094H1158.85V148.264ZM1232.5 148.264H1159.85V75.6094H1232.5V148.264ZM1306.15 148.264H1233.5V75.6094H1306.15V148.264ZM1306.15 74.6094V1.95508H1233.5V74.6094H1306.15ZM1232.5 74.6094V1.95508L1159.85 1.95507V74.6094H1232.5ZM1158.85 74.6094V1.95507H1086.19V74.6094H1158.85ZM1085.19 74.6094V1.95507L1012.53 1.95506V74.6094H1085.19ZM1011.53 74.6094V1.95506H938.88V74.6094H1011.53ZM937.88 74.6094V1.95506H865.23V74.6094H937.88ZM864.23 74.6094V1.95506H791.574V74.6094H864.23Z" fill="url(#paint0_radial_17_67)"/><path fill-rule="evenodd" clip-rule="evenodd" d="M420.574 251.088V306.955H366.953V307.955H420.574V380.609H366.953V381.609H420.574V454.264H366.953V455.264H420.574V527.918H366.953V528.918H420.574V601.572H366.953V602.572H420.574V675.227H366.953V676.227H420.574V748.881H366.953V749.881H420.574V822.535H366.953V823.535H420.574V879.404H421.574V823.535H494.23V879.404H495.23V823.535H567.878V879.404H568.878V823.535H641.535V879.404H642.535V823.535H715.191V879.404H716.191V823.535H788.847V879.404H789.847V823.535H862.496V879.404H863.496V823.535H936.15V879.404H937.15V823.535H995.27V822.535H937.15V749.881H995.27V748.881H937.15V676.227H995.27V675.227H937.15V602.572H995.27V601.572H937.15V528.918H995.27V527.918H937.15V455.264H995.27V454.264H937.15V381.609H995.27V380.609H937.15V307.955H995.27V306.955H937.15V251.088H936.15V306.955H863.496V251.088H862.496V306.955H789.847V251.088H788.847V306.955H716.191V251.088H715.191V306.955H642.535V251.088H641.535V306.955H568.878V251.088H567.878V306.955H495.23V251.088H494.23V306.955H421.574V251.088H420.574ZM936.15 822.535V749.881H863.496V822.535H936.15ZM862.496 822.535V749.881H789.847V822.535H862.496ZM788.847 822.535V749.881H716.191V822.535H788.847ZM715.191 822.535V749.881H642.535V822.535H715.191ZM641.535 822.535V749.881H568.878V822.535H641.535ZM567.878 822.535V749.881H495.23V822.535H567.878ZM494.23 822.535V749.881H421.574V822.535H494.23ZM494.23 748.881H421.574V676.227H494.23V748.881ZM567.878 748.881H495.23V676.227H567.878V748.881ZM641.535 748.881H568.878V676.227H641.535V748.881ZM715.191 748.881H642.535V676.227H715.191V748.881ZM788.847 748.881H716.191V676.227H788.847V748.881ZM862.496 748.881H789.847V676.227H862.496V748.881ZM936.15 748.881H863.496V676.227H936.15V748.881ZM936.15 675.227V602.572H863.496V675.227H936.15ZM862.496 675.227V602.572H789.847V675.227H862.496ZM788.847 675.227V602.572H716.191V675.227H788.847ZM715.191 675.227V602.572H642.535V675.227H715.191ZM641.535 675.227V602.572H568.878V675.227H641.535ZM567.878 675.227V602.572H495.23V675.227H567.878ZM494.23 675.227V602.572H421.574V675.227H494.23ZM494.23 601.572H421.574V528.918H494.23V601.572ZM567.878 601.572H495.23V528.918H567.878V601.572ZM641.535 601.572H568.878V528.918H641.535V601.572ZM715.191 601.572H642.535V528.918H715.191V601.572ZM788.847 601.572H716.191V528.918H788.847V601.572ZM862.496 601.572H789.847V528.918H862.496V601.572ZM936.15 601.572H863.496V528.918H936.15V601.572ZM936.15 527.918V455.264H863.496V527.918H936.15ZM862.496 527.918V455.264H789.847V527.918H862.496ZM788.847 527.918V455.264H716.191V527.918H788.847ZM715.191 527.918V455.264H642.535V527.918H715.191ZM641.535 527.918V455.264H568.878V527.918H641.535ZM567.878 527.918V455.264H495.23V527.918H567.878ZM494.23 527.918V455.264H421.574V527.918H494.23ZM494.23 454.264H421.574V381.609H494.23V454.264ZM567.878 454.264H495.23V381.609H567.878V454.264ZM641.535 454.264H568.878V381.609H641.535V454.264ZM715.191 454.264H642.535V381.609H715.191V454.264ZM788.847 454.264H716.191V381.609H788.847V454.264ZM862.496 454.264H789.847V381.609H862.496V454.264ZM936.15 454.264H863.496V381.609H936.15V454.264ZM936.15 380.609V307.955H863.496V380.609H936.15ZM862.496 380.609V307.955H789.847V380.609H862.496ZM788.847 380.609V307.955H716.191V380.609H788.847ZM715.191 380.609V307.955H642.535V380.609H715.191ZM641.535 380.609V307.955H568.878V380.609H641.535ZM567.878 380.609V307.955H495.23V380.609H567.878ZM494.23 380.609V307.955H421.574V380.609H494.23Z" fill="url(#paint1_radial_17_67)"/><g opacity="0.4" filter="url(#filter0_f_17_67)"><path d="M1126.86 -151.733C985.212 -210.975 825.078 -150.673 769.191 -17.0459C713.305 116.581 782.829 272.933 924.478 332.174C1066.13 391.416 1226.26 331.114 1282.15 197.487C1338.04 63.8593 1268.51 -92.4918 1126.86 -151.733Z" fill="url(#paint2_linear_17_67)" fill-opacity="0.23"/></g><g opacity="0.4" filter="url(#filter1_f_17_67)"><path d="M420.475 -23.9488C558.812 121.092 739.591 173.207 824.258 92.4539C908.924 11.7009 865.417 -171.341 727.08 -316.381C588.744 -461.422 407.965 -513.537 323.298 -432.784C238.632 -352.031 282.139 -168.989 420.475 -23.9488Z" fill="#0198B1"/></g></g></g><defs><filter id="filter0_f_17_67" x="555.877" y="-368.511" width="939.586" height="917.463" filterUnits="userSpaceOnUse" color-interpolation-filters="sRGB"><feFlood flood-opacity="0" result="BackgroundImageFix"/><feBlend mode="normal" in="SourceGraphic" in2="BackgroundImageFix" result="shape"/><feGaussianBlur stdDeviation="97" result="effect1_foregroundBlur_17_67"/></filter><filter id="filter1_f_17_67" x="-23.9333" y="-774.799" width="1195.42" height="1209.27" filterUnits="userSpaceOnUse" color-interpolation-filters="sRGB"><feFlood flood-opacity="0" result="BackgroundImageFix"/><feBlend mode="normal" in="SourceGraphic" in2="BackgroundImageFix" result="shape"/><feGaussianBlur stdDeviation="152" result="effect1_foregroundBlur_17_67"/></filter><radialGradient id="paint0_radial_17_67" cx="0" cy="0" r="1" gradientUnits="userSpaceOnUse" gradientTransform="translate(1051.11 259.246) rotate(90) scale(238.243 238.243)"><stop stop-color="#D6192B" stop-opacity="0.29"/><stop offset="1" stop-color="#D6192B" stop-opacity="0"/></radialGradient><radialGradient id="paint1_radial_17_67" cx="0" cy="0" r="1" gradientUnits="userSpaceOnUse" gradientTransform="translate(681.111 565.246) rotate(90) scale(238.243 238.243)"><stop stop-color="#4A6976" stop-opacity="0.29"/><stop offset="1" stop-color="#4A6976" stop-opacity="0"/></radialGradient><linearGradient id="paint2_linear_17_67" x1="698.372" y1="202.323" x2="1007.23" y2="-236.025" gradientUnits="userSpaceOnUse"><stop stop-color="#D6192B"/><stop offset="0.21875" stop-color="#D6192B"/><stop offset="1" stop-color="#D6192B" stop-opacity="0"/></linearGradient><clipPath id="clip0_17_67"><rect width="1572" height="795" fill="white" transform="translate(-72)"/></clipPath></defs></svg>
